# xmcd
#
# Track frame offsets:
#	150
#	14576
#	31629
#	46642
#	62957
#	77314
#	97523
#	108469
#	123203
#	147183
#
# Disc length: 2175 seconds
#
# Revision: 0
# Processed by: cddbd v1.5.2PL0 Copyright (c) Steve Scherf et al.
# Submitted via: audiograbber 1.83.01
#
DISCID=6a087d0a
DTITLE=NightHawk - NightHawk
DYEAR=1999
DGENRE=Country
TTITLE0=Cowboy Love
TTITLE1=Coming Home
TTITLE2=Hard Luck Woman
TTITLE3=Fishin' In The Dark
TTITLE4=I LIke It, I Love It
TTITLE5=Mississippi Waltz
TTITLE6=Sold (T.G.C.A.I.)
TTITLE7=Red Wine And A Good Cigar
TTITLE8=The Dance
TTITLE9=Boots In Line
EXTD=
EXTT0=
EXTT1=
EXTT2=
EXTT3=
EXTT4=
EXTT5=
EXTT6=
EXTT7=
EXTT8=
EXTT9=
PLAYORDER=
